<svg xmlns="http://www.w3.org/2000/svg" width="486" height="390" viewBox="0 0 486 390" font-family="monospace">
  <rect width="486" height="390" rx="10" fill="#0d0d0d"/>
  <rect width="486" height="30" rx="10" fill="#3a3a3a"/>
  <rect y="20" width="486" height="10" fill="#3a3a3a"/>
  <circle cx="20" cy="15" r="6" fill="#ff5f56"/>
  <circle cx="42" cy="15" r="6" fill="#ffbd2e"/>
  <circle cx="64" cy="15" r="6" fill="#27c93f"/>
  <g>
    <rect x="41" y="71" width="18" height="18" fill="none" stroke="#e0a890" stroke-width="2"/>
    <rect x="59" y="71" width="18" height="18" fill="none" stroke="#e0a890" stroke-width="2"/>
    <rect x="77" y="71" width="18" height="18" fill="none" stroke="#e0a890" stroke-width="2"/>
    <rect x="95" y="71" width="18" height="18" fill="none" stroke="#e0a890" stroke-width="2"/>
    <rect x="113" y="71" width="18" height="18" fill="none" stroke="#e0a890" stroke-width="2"/>
    <rect x="41" y="89" width="18" height="18" fill="none" stroke="#e0a890" stroke-width="2"/>
    <rect x="41" y="107" width="18" height="18" fill="none" stroke="#e0a890" stroke-width="2"/>
    <rect x="41" y="125" width="18" height="18" fill="none" stroke="#e0a890" stroke-width="2"/>
    <rect x="59" y="125" width="18" height="18" fill="none" stroke="#e0a890" stroke-width="2"/>
    <rect x="77" y="125" width="18" height="18" fill="none" stroke="#e0a890" stroke-width="2"/>
    <rect x="95" y="125" width="18" height="18" fill="none" stroke="#e0a890" stroke-width="2"/>
    <rect x="41" y="143" width="18" height="18" fill="none" stroke="#e0a890" stroke-width="2"/>
    <rect x="41" y="161" width="18" height="18" fill="none" stroke="#e0a890" stroke-width="2"/>
    <rect x="41" y="179" width="18" height="18" fill="none" stroke="#e0a890" stroke-width="2"/>
    <rect x="149" y="71" width="18" height="18" fill="none" stroke="#e0a890" stroke-width="2"/>
    <rect x="167" y="71" width="18" height="18" fill="none" stroke="#e0a890" stroke-width="2"/>
    <rect x="185" y="71" width="18" height="18" fill="none" stroke="#e0a890" stroke-width="2"/>
    <rect x="203" y="71" width="18" height="18" fill="none" stroke="#e0a890" stroke-width="2"/>
    <rect x="221" y="71" width="18" height="18" fill="none" stroke="#e0a890" stroke-width="2"/>
    <rect x="185" y="89" width="18" height="18" fill="none" stroke="#e0a890" stroke-width="2"/>
    <rect x="185" y="107" width="18" height="18" fill="none" stroke="#e0a890" stroke-width="2"/>
    <rect x="185" y="125" width="18" height="18" fill="none" stroke="#e0a890" stroke-width="2"/>
    <rect x="185" y="143" width="18" height="18" fill="none" stroke="#e0a890" stroke-width="2"/>
    <rect x="185" y="161" width="18" height="18" fill="none" stroke="#e0a890" stroke-width="2"/>
    <rect x="149" y="179" width="18" height="18" fill="none" stroke="#e0a890" stroke-width="2"/>
    <rect x="167" y="179" width="18" height="18" fill="none" stroke="#e0a890" stroke-width="2"/>
    <rect x="185" y="179" width="18" height="18" fill="none" stroke="#e0a890" stroke-width="2"/>
    <rect x="203" y="179" width="18" height="18" fill="none" stroke="#e0a890" stroke-width="2"/>
    <rect x="221" y="179" width="18" height="18" fill="none" stroke="#e0a890" stroke-width="2"/>
    <rect x="257" y="71" width="18" height="18" fill="none" stroke="#e0a890" stroke-width="2"/>
    <rect x="329" y="71" width="18" height="18" fill="none" stroke="#e0a890" stroke-width="2"/>
    <rect x="257" y="89" width="18" height="18" fill="none" stroke="#e0a890" stroke-width="2"/>
    <rect x="275" y="89" width="18" height="18" fill="none" stroke="#e0a890" stroke-width="2"/>
    <rect x="329" y="89" width="18" height="18" fill="none" stroke="#e0a890" stroke-width="2"/>
    <rect x="257" y="107" width="18" height="18" fill="none" stroke="#e0a890" stroke-width="2"/>
    <rect x="275" y="107" width="18" height="18" fill="none" stroke="#e0a890" stroke-width="2"/>
    <rect x="329" y="107" width="18" height="18" fill="none" stroke="#e0a890" stroke-width="2"/>
    <rect x="257" y="125" width="18" height="18" fill="none" stroke="#e0a890" stroke-width="2"/>
    <rect x="293" y="125" width="18" height="18" fill="none" stroke="#e0a890" stroke-width="2"/>
    <rect x="329" y="125" width="18" height="18" fill="none" stroke="#e0a890" stroke-width="2"/>
    <rect x="257" y="143" width="18" height="18" fill="none" stroke="#e0a890" stroke-width="2"/>
    <rect x="311" y="143" width="18" height="18" fill="none" stroke="#e0a890" stroke-width="2"/>
    <rect x="329" y="143" width="18" height="18" fill="none" stroke="#e0a890" stroke-width="2"/>
    <rect x="257" y="161" width="18" height="18" fill="none" stroke="#e0a890" stroke-width="2"/>
    <rect x="311" y="161" width="18" height="18" fill="none" stroke="#e0a890" stroke-width="2"/>
    <rect x="329" y="161" width="18" height="18" fill="none" stroke="#e0a890" stroke-width="2"/>
    <rect x="257" y="179" width="18" height="18" fill="none" stroke="#e0a890" stroke-width="2"/>
    <rect x="329" y="179" width="18" height="18" fill="none" stroke="#e0a890" stroke-width="2"/>
    <rect x="365" y="71" width="18" height="18" fill="none" stroke="#e0a890" stroke-width="2"/>
    <rect x="383" y="71" width="18" height="18" fill="none" stroke="#e0a890" stroke-width="2"/>
    <rect x="401" y="71" width="18" height="18" fill="none" stroke="#e0a890" stroke-width="2"/>
    <rect x="419" y="71" width="18" height="18" fill="none" stroke="#e0a890" stroke-width="2"/>
    <rect x="365" y="89" width="18" height="18" fill="none" stroke="#e0a890" stroke-width="2"/>
    <rect x="437" y="89" width="18" height="18" fill="none" stroke="#e0a890" stroke-width="2"/>
    <rect x="365" y="107" width="18" height="18" fill="none" stroke="#e0a890" stroke-width="2"/>
    <rect x="437" y="107" width="18" height="18" fill="none" stroke="#e0a890" stroke-width="2"/>
    <rect x="365" y="125" width="18" height="18" fill="none" stroke="#e0a890" stroke-width="2"/>
    <rect x="437" y="125" width="18" height="18" fill="none" stroke="#e0a890" stroke-width="2"/>
    <rect x="365" y="143" width="18" height="18" fill="none" stroke="#e0a890" stroke-width="2"/>
    <rect x="437" y="143" width="18" height="18" fill="none" stroke="#e0a890" stroke-width="2"/>
    <rect x="365" y="161" width="18" height="18" fill="none" stroke="#e0a890" stroke-width="2"/>
    <rect x="437" y="161" width="18" height="18" fill="none" stroke="#e0a890" stroke-width="2"/>
    <rect x="365" y="179" width="18" height="18" fill="none" stroke="#e0a890" stroke-width="2"/>
    <rect x="383" y="179" width="18" height="18" fill="none" stroke="#e0a890" stroke-width="2"/>
    <rect x="401" y="179" width="18" height="18" fill="none" stroke="#e0a890" stroke-width="2"/>
    <rect x="419" y="179" width="18" height="18" fill="none" stroke="#e0a890" stroke-width="2"/>
    <rect x="41" y="233" width="18" height="18" fill="none" stroke="#e0a890" stroke-width="2"/>
    <rect x="59" y="233" width="18" height="18" fill="none" stroke="#e0a890" stroke-width="2"/>
    <rect x="77" y="233" width="18" height="18" fill="none" stroke="#e0a890" stroke-width="2"/>
    <rect x="95" y="233" width="18" height="18" fill="none" stroke="#e0a890" stroke-width="2"/>
    <rect x="113" y="233" width="18" height="18" fill="none" stroke="#e0a890" stroke-width="2"/>
    <rect x="77" y="251" width="18" height="18" fill="none" stroke="#e0a890" stroke-width="2"/>
    <rect x="77" y="269" width="18" height="18" fill="none" stroke="#e0a890" stroke-width="2"/>
    <rect x="77" y="287" width="18" height="18" fill="none" stroke="#e0a890" stroke-width="2"/>
    <rect x="77" y="305" width="18" height="18" fill="none" stroke="#e0a890" stroke-width="2"/>
    <rect x="77" y="323" width="18" height="18" fill="none" stroke="#e0a890" stroke-width="2"/>
    <rect x="41" y="341" width="18" height="18" fill="none" stroke="#e0a890" stroke-width="2"/>
    <rect x="59" y="341" width="18" height="18" fill="none" stroke="#e0a890" stroke-width="2"/>
    <rect x="77" y="341" width="18" height="18" fill="none" stroke="#e0a890" stroke-width="2"/>
    <rect x="95" y="341" width="18" height="18" fill="none" stroke="#e0a890" stroke-width="2"/>
    <rect x="113" y="341" width="18" height="18" fill="none" stroke="#e0a890" stroke-width="2"/>
    <rect x="149" y="233" width="18" height="18" fill="none" stroke="#e0a890" stroke-width="2"/>
    <rect x="167" y="233" width="18" height="18" fill="none" stroke="#e0a890" stroke-width="2"/>
    <rect x="185" y="233" width="18" height="18" fill="none" stroke="#e0a890" stroke-width="2"/>
    <rect x="203" y="233" width="18" height="18" fill="none" stroke="#e0a890" stroke-width="2"/>
    <rect x="221" y="233" width="18" height="18" fill="none" stroke="#e0a890" stroke-width="2"/>
    <rect x="185" y="251" width="18" height="18" fill="none" stroke="#e0a890" stroke-width="2"/>
    <rect x="185" y="269" width="18" height="18" fill="none" stroke="#e0a890" stroke-width="2"/>
    <rect x="185" y="287" width="18" height="18" fill="none" stroke="#e0a890" stroke-width="2"/>
    <rect x="185" y="305" width="18" height="18" fill="none" stroke="#e0a890" stroke-width="2"/>
    <rect x="185" y="323" width="18" height="18" fill="none" stroke="#e0a890" stroke-width="2"/>
    <rect x="185" y="341" width="18" height="18" fill="none" stroke="#e0a890" stroke-width="2"/>
    <rect x="257" y="233" width="18" height="18" fill="none" stroke="#e0a890" stroke-width="2"/>
    <rect x="275" y="233" width="18" height="18" fill="none" stroke="#e0a890" stroke-width="2"/>
    <rect x="293" y="233" width="18" height="18" fill="none" stroke="#e0a890" stroke-width="2"/>
    <rect x="311" y="233" width="18" height="18" fill="none" stroke="#e0a890" stroke-width="2"/>
    <rect x="329" y="233" width="18" height="18" fill="none" stroke="#e0a890" stroke-width="2"/>
    <rect x="257" y="251" width="18" height="18" fill="none" stroke="#e0a890" stroke-width="2"/>
    <rect x="257" y="269" width="18" height="18" fill="none" stroke="#e0a890" stroke-width="2"/>
    <rect x="257" y="287" width="18" height="18" fill="none" stroke="#e0a890" stroke-width="2"/>
    <rect x="275" y="287" width="18" height="18" fill="none" stroke="#e0a890" stroke-width="2"/>
    <rect x="293" y="287" width="18" height="18" fill="none" stroke="#e0a890" stroke-width="2"/>
    <rect x="311" y="287" width="18" height="18" fill="none" stroke="#e0a890" stroke-width="2"/>
    <rect x="257" y="305" width="18" height="18" fill="none" stroke="#e0a890" stroke-width="2"/>
    <rect x="257" y="323" width="18" height="18" fill="none" stroke="#e0a890" stroke-width="2"/>
    <rect x="257" y="341" width="18" height="18" fill="none" stroke="#e0a890" stroke-width="2"/>
    <rect x="275" y="341" width="18" height="18" fill="none" stroke="#e0a890" stroke-width="2"/>
    <rect x="293" y="341" width="18" height="18" fill="none" stroke="#e0a890" stroke-width="2"/>
    <rect x="311" y="341" width="18" height="18" fill="none" stroke="#e0a890" stroke-width="2"/>
    <rect x="329" y="341" width="18" height="18" fill="none" stroke="#e0a890" stroke-width="2"/>
    <rect x="365" y="233" width="18" height="18" fill="none" stroke="#e0a890" stroke-width="2"/>
    <rect x="437" y="233" width="18" height="18" fill="none" stroke="#e0a890" stroke-width="2"/>
    <rect x="365" y="251" width="18" height="18" fill="none" stroke="#e0a890" stroke-width="2"/>
    <rect x="383" y="251" width="18" height="18" fill="none" stroke="#e0a890" stroke-width="2"/>
    <rect x="419" y="251" width="18" height="18" fill="none" stroke="#e0a890" stroke-width="2"/>
    <rect x="437" y="251" width="18" height="18" fill="none" stroke="#e0a890" stroke-width="2"/>
    <rect x="365" y="269" width="18" height="18" fill="none" stroke="#e0a890" stroke-width="2"/>
    <rect x="401" y="269" width="18" height="18" fill="none" stroke="#e0a890" stroke-width="2"/>
    <rect x="437" y="269" width="18" height="18" fill="none" stroke="#e0a890" stroke-width="2"/>
    <rect x="365" y="287" width="18" height="18" fill="none" stroke="#e0a890" stroke-width="2"/>
    <rect x="401" y="287" width="18" height="18" fill="none" stroke="#e0a890" stroke-width="2"/>
    <rect x="437" y="287" width="18" height="18" fill="none" stroke="#e0a890" stroke-width="2"/>
    <rect x="365" y="305" width="18" height="18" fill="none" stroke="#e0a890" stroke-width="2"/>
    <rect x="437" y="305" width="18" height="18" fill="none" stroke="#e0a890" stroke-width="2"/>
    <rect x="365" y="323" width="18" height="18" fill="none" stroke="#e0a890" stroke-width="2"/>
    <rect x="437" y="323" width="18" height="18" fill="none" stroke="#e0a890" stroke-width="2"/>
    <rect x="365" y="341" width="18" height="18" fill="none" stroke="#e0a890" stroke-width="2"/>
    <rect x="437" y="341" width="18" height="18" fill="none" stroke="#e0a890" stroke-width="2"/>
  </g>
  <g>
    <rect x="36" y="66" width="18" height="18" fill="#c8826a" stroke="#7a4a3a" stroke-width="1.5"/>
    <rect x="54" y="66" width="18" height="18" fill="#c8826a" stroke="#7a4a3a" stroke-width="1.5"/>
    <rect x="72" y="66" width="18" height="18" fill="#c8826a" stroke="#7a4a3a" stroke-width="1.5"/>
    <rect x="90" y="66" width="18" height="18" fill="#c8826a" stroke="#7a4a3a" stroke-width="1.5"/>
    <rect x="108" y="66" width="18" height="18" fill="#c8826a" stroke="#7a4a3a" stroke-width="1.5"/>
    <rect x="36" y="84" width="18" height="18" fill="#c8826a" stroke="#7a4a3a" stroke-width="1.5"/>
    <rect x="36" y="102" width="18" height="18" fill="#c8826a" stroke="#7a4a3a" stroke-width="1.5"/>
    <rect x="36" y="120" width="18" height="18" fill="#c8826a" stroke="#7a4a3a" stroke-width="1.5"/>
    <rect x="54" y="120" width="18" height="18" fill="#c8826a" stroke="#7a4a3a" stroke-width="1.5"/>
    <rect x="72" y="120" width="18" height="18" fill="#c8826a" stroke="#7a4a3a" stroke-width="1.5"/>
    <rect x="90" y="120" width="18" height="18" fill="#c8826a" stroke="#7a4a3a" stroke-width="1.5"/>
    <rect x="36" y="138" width="18" height="18" fill="#c8826a" stroke="#7a4a3a" stroke-width="1.5"/>
    <rect x="36" y="156" width="18" height="18" fill="#c8826a" stroke="#7a4a3a" stroke-width="1.5"/>
    <rect x="36" y="174" width="18" height="18" fill="#c8826a" stroke="#7a4a3a" stroke-width="1.5"/>
    <rect x="144" y="66" width="18" height="18" fill="#c8826a" stroke="#7a4a3a" stroke-width="1.5"/>
    <rect x="162" y="66" width="18" height="18" fill="#c8826a" stroke="#7a4a3a" stroke-width="1.5"/>
    <rect x="180" y="66" width="18" height="18" fill="#c8826a" stroke="#7a4a3a" stroke-width="1.5"/>
    <rect x="198" y="66" width="18" height="18" fill="#c8826a" stroke="#7a4a3a" stroke-width="1.5"/>
    <rect x="216" y="66" width="18" height="18" fill="#c8826a" stroke="#7a4a3a" stroke-width="1.5"/>
    <rect x="180" y="84" width="18" height="18" fill="#c8826a" stroke="#7a4a3a" stroke-width="1.5"/>
    <rect x="180" y="102" width="18" height="18" fill="#c8826a" stroke="#7a4a3a" stroke-width="1.5"/>
    <rect x="180" y="120" width="18" height="18" fill="#c8826a" stroke="#7a4a3a" stroke-width="1.5"/>
    <rect x="180" y="138" width="18" height="18" fill="#c8826a" stroke="#7a4a3a" stroke-width="1.5"/>
    <rect x="180" y="156" width="18" height="18" fill="#c8826a" stroke="#7a4a3a" stroke-width="1.5"/>
    <rect x="144" y="174" width="18" height="18" fill="#c8826a" stroke="#7a4a3a" stroke-width="1.5"/>
    <rect x="162" y="174" width="18" height="18" fill="#c8826a" stroke="#7a4a3a" stroke-width="1.5"/>
    <rect x="180" y="174" width="18" height="18" fill="#c8826a" stroke="#7a4a3a" stroke-width="1.5"/>
    <rect x="198" y="174" width="18" height="18" fill="#c8826a" stroke="#7a4a3a" stroke-width="1.5"/>
    <rect x="216" y="174" width="18" height="18" fill="#c8826a" stroke="#7a4a3a" stroke-width="1.5"/>
    <rect x="252" y="66" width="18" height="18" fill="#c8826a" stroke="#7a4a3a" stroke-width="1.5"/>
    <rect x="324" y="66" width="18" height="18" fill="#c8826a" stroke="#7a4a3a" stroke-width="1.5"/>
    <rect x="252" y="84" width="18" height="18" fill="#c8826a" stroke="#7a4a3a" stroke-width="1.5"/>
    <rect x="270" y="84" width="18" height="18" fill="#c8826a" stroke="#7a4a3a" stroke-width="1.5"/>
    <rect x="324" y="84" width="18" height="18" fill="#c8826a" stroke="#7a4a3a" stroke-width="1.5"/>
    <rect x="252" y="102" width="18" height="18" fill="#c8826a" stroke="#7a4a3a" stroke-width="1.5"/>
    <rect x="270" y="102" width="18" height="18" fill="#c8826a" stroke="#7a4a3a" stroke-width="1.5"/>
    <rect x="324" y="102" width="18" height="18" fill="#c8826a" stroke="#7a4a3a" stroke-width="1.5"/>
    <rect x="252" y="120" width="18" height="18" fill="#c8826a" stroke="#7a4a3a" stroke-width="1.5"/>
    <rect x="288" y="120" width="18" height="18" fill="#c8826a" stroke="#7a4a3a" stroke-width="1.5"/>
    <rect x="324" y="120" width="18" height="18" fill="#c8826a" stroke="#7a4a3a" stroke-width="1.5"/>
    <rect x="252" y="138" width="18" height="18" fill="#c8826a" stroke="#7a4a3a" stroke-width="1.5"/>
    <rect x="306" y="138" width="18" height="18" fill="#c8826a" stroke="#7a4a3a" stroke-width="1.5"/>
    <rect x="324" y="138" width="18" height="18" fill="#c8826a" stroke="#7a4a3a" stroke-width="1.5"/>
    <rect x="252" y="156" width="18" height="18" fill="#c8826a" stroke="#7a4a3a" stroke-width="1.5"/>
    <rect x="306" y="156" width="18" height="18" fill="#c8826a" stroke="#7a4a3a" stroke-width="1.5"/>
    <rect x="324" y="156" width="18" height="18" fill="#c8826a" stroke="#7a4a3a" stroke-width="1.5"/>
    <rect x="252" y="174" width="18" height="18" fill="#c8826a" stroke="#7a4a3a" stroke-width="1.5"/>
    <rect x="324" y="174" width="18" height="18" fill="#c8826a" stroke="#7a4a3a" stroke-width="1.5"/>
    <rect x="360" y="66" width="18" height="18" fill="#c8826a" stroke="#7a4a3a" stroke-width="1.5"/>
    <rect x="378" y="66" width="18" height="18" fill="#c8826a" stroke="#7a4a3a" stroke-width="1.5"/>
    <rect x="396" y="66" width="18" height="18" fill="#c8826a" stroke="#7a4a3a" stroke-width="1.5"/>
    <rect x="414" y="66" width="18" height="18" fill="#c8826a" stroke="#7a4a3a" stroke-width="1.5"/>
    <rect x="360" y="84" width="18" height="18" fill="#c8826a" stroke="#7a4a3a" stroke-width="1.5"/>
    <rect x="432" y="84" width="18" height="18" fill="#c8826a" stroke="#7a4a3a" stroke-width="1.5"/>
    <rect x="360" y="102" width="18" height="18" fill="#c8826a" stroke="#7a4a3a" stroke-width="1.5"/>
    <rect x="432" y="102" width="18" height="18" fill="#c8826a" stroke="#7a4a3a" stroke-width="1.5"/>
    <rect x="360" y="120" width="18" height="18" fill="#c8826a" stroke="#7a4a3a" stroke-width="1.5"/>
    <rect x="432" y="120" width="18" height="18" fill="#c8826a" stroke="#7a4a3a" stroke-width="1.5"/>
    <rect x="360" y="138" width="18" height="18" fill="#c8826a" stroke="#7a4a3a" stroke-width="1.5"/>
    <rect x="432" y="138" width="18" height="18" fill="#c8826a" stroke="#7a4a3a" stroke-width="1.5"/>
    <rect x="360" y="156" width="18" height="18" fill="#c8826a" stroke="#7a4a3a" stroke-width="1.5"/>
    <rect x="432" y="156" width="18" height="18" fill="#c8826a" stroke="#7a4a3a" stroke-width="1.5"/>
    <rect x="360" y="174" width="18" height="18" fill="#c8826a" stroke="#7a4a3a" stroke-width="1.5"/>
    <rect x="378" y="174" width="18" height="18" fill="#c8826a" stroke="#7a4a3a" stroke-width="1.5"/>
    <rect x="396" y="174" width="18" height="18" fill="#c8826a" stroke="#7a4a3a" stroke-width="1.5"/>
    <rect x="414" y="174" width="18" height="18" fill="#c8826a" stroke="#7a4a3a" stroke-width="1.5"/>
    <rect x="36" y="228" width="18" height="18" fill="#c8826a" stroke="#7a4a3a" stroke-width="1.5"/>
    <rect x="54" y="228" width="18" height="18" fill="#c8826a" stroke="#7a4a3a" stroke-width="1.5"/>
    <rect x="72" y="228" width="18" height="18" fill="#c8826a" stroke="#7a4a3a" stroke-width="1.5"/>
    <rect x="90" y="228" width="18" height="18" fill="#c8826a" stroke="#7a4a3a" stroke-width="1.5"/>
    <rect x="108" y="228" width="18" height="18" fill="#c8826a" stroke="#7a4a3a" stroke-width="1.5"/>
    <rect x="72" y="246" width="18" height="18" fill="#c8826a" stroke="#7a4a3a" stroke-width="1.5"/>
    <rect x="72" y="264" width="18" height="18" fill="#c8826a" stroke="#7a4a3a" stroke-width="1.5"/>
    <rect x="72" y="282" width="18" height="18" fill="#c8826a" stroke="#7a4a3a" stroke-width="1.5"/>
    <rect x="72" y="300" width="18" height="18" fill="#c8826a" stroke="#7a4a3a" stroke-width="1.5"/>
    <rect x="72" y="318" width="18" height="18" fill="#c8826a" stroke="#7a4a3a" stroke-width="1.5"/>
    <rect x="36" y="336" width="18" height="18" fill="#c8826a" stroke="#7a4a3a" stroke-width="1.5"/>
    <rect x="54" y="336" width="18" height="18" fill="#c8826a" stroke="#7a4a3a" stroke-width="1.5"/>
    <rect x="72" y="336" width="18" height="18" fill="#c8826a" stroke="#7a4a3a" stroke-width="1.5"/>
    <rect x="90" y="336" width="18" height="18" fill="#c8826a" stroke="#7a4a3a" stroke-width="1.5"/>
    <rect x="108" y="336" width="18" height="18" fill="#c8826a" stroke="#7a4a3a" stroke-width="1.5"/>
    <rect x="144" y="228" width="18" height="18" fill="#c8826a" stroke="#7a4a3a" stroke-width="1.5"/>
    <rect x="162" y="228" width="18" height="18" fill="#c8826a" stroke="#7a4a3a" stroke-width="1.5"/>
    <rect x="180" y="228" width="18" height="18" fill="#c8826a" stroke="#7a4a3a" stroke-width="1.5"/>
    <rect x="198" y="228" width="18" height="18" fill="#c8826a" stroke="#7a4a3a" stroke-width="1.5"/>
    <rect x="216" y="228" width="18" height="18" fill="#c8826a" stroke="#7a4a3a" stroke-width="1.5"/>
    <rect x="180" y="246" width="18" height="18" fill="#c8826a" stroke="#7a4a3a" stroke-width="1.5"/>
    <rect x="180" y="264" width="18" height="18" fill="#c8826a" stroke="#7a4a3a" stroke-width="1.5"/>
    <rect x="180" y="282" width="18" height="18" fill="#c8826a" stroke="#7a4a3a" stroke-width="1.5"/>
    <rect x="180" y="300" width="18" height="18" fill="#c8826a" stroke="#7a4a3a" stroke-width="1.5"/>
    <rect x="180" y="318" width="18" height="18" fill="#c8826a" stroke="#7a4a3a" stroke-width="1.5"/>
    <rect x="180" y="336" width="18" height="18" fill="#c8826a" stroke="#7a4a3a" stroke-width="1.5"/>
    <rect x="252" y="228" width="18" height="18" fill="#c8826a" stroke="#7a4a3a" stroke-width="1.5"/>
    <rect x="270" y="228" width="18" height="18" fill="#c8826a" stroke="#7a4a3a" stroke-width="1.5"/>
    <rect x="288" y="228" width="18" height="18" fill="#c8826a" stroke="#7a4a3a" stroke-width="1.5"/>
    <rect x="306" y="228" width="18" height="18" fill="#c8826a" stroke="#7a4a3a" stroke-width="1.5"/>
    <rect x="324" y="228" width="18" height="18" fill="#c8826a" stroke="#7a4a3a" stroke-width="1.5"/>
    <rect x="252" y="246" width="18" height="18" fill="#c8826a" stroke="#7a4a3a" stroke-width="1.5"/>
    <rect x="252" y="264" width="18" height="18" fill="#c8826a" stroke="#7a4a3a" stroke-width="1.5"/>
    <rect x="252" y="282" width="18" height="18" fill="#c8826a" stroke="#7a4a3a" stroke-width="1.5"/>
    <rect x="270" y="282" width="18" height="18" fill="#c8826a" stroke="#7a4a3a" stroke-width="1.5"/>
    <rect x="288" y="282" width="18" height="18" fill="#c8826a" stroke="#7a4a3a" stroke-width="1.5"/>
    <rect x="306" y="282" width="18" height="18" fill="#c8826a" stroke="#7a4a3a" stroke-width="1.5"/>
    <rect x="252" y="300" width="18" height="18" fill="#c8826a" stroke="#7a4a3a" stroke-width="1.5"/>
    <rect x="252" y="318" width="18" height="18" fill="#c8826a" stroke="#7a4a3a" stroke-width="1.5"/>
    <rect x="252" y="336" width="18" height="18" fill="#c8826a" stroke="#7a4a3a" stroke-width="1.5"/>
    <rect x="270" y="336" width="18" height="18" fill="#c8826a" stroke="#7a4a3a" stroke-width="1.5"/>
    <rect x="288" y="336" width="18" height="18" fill="#c8826a" stroke="#7a4a3a" stroke-width="1.5"/>
    <rect x="306" y="336" width="18" height="18" fill="#c8826a" stroke="#7a4a3a" stroke-width="1.5"/>
    <rect x="324" y="336" width="18" height="18" fill="#c8826a" stroke="#7a4a3a" stroke-width="1.5"/>
    <rect x="360" y="228" width="18" height="18" fill="#c8826a" stroke="#7a4a3a" stroke-width="1.5"/>
    <rect x="432" y="228" width="18" height="18" fill="#c8826a" stroke="#7a4a3a" stroke-width="1.5"/>
    <rect x="360" y="246" width="18" height="18" fill="#c8826a" stroke="#7a4a3a" stroke-width="1.5"/>
    <rect x="378" y="246" width="18" height="18" fill="#c8826a" stroke="#7a4a3a" stroke-width="1.5"/>
    <rect x="414" y="246" width="18" height="18" fill="#c8826a" stroke="#7a4a3a" stroke-width="1.5"/>
    <rect x="432" y="246" width="18" height="18" fill="#c8826a" stroke="#7a4a3a" stroke-width="1.5"/>
    <rect x="360" y="264" width="18" height="18" fill="#c8826a" stroke="#7a4a3a" stroke-width="1.5"/>
    <rect x="396" y="264" width="18" height="18" fill="#c8826a" stroke="#7a4a3a" stroke-width="1.5"/>
    <rect x="432" y="264" width="18" height="18" fill="#c8826a" stroke="#7a4a3a" stroke-width="1.5"/>
    <rect x="360" y="282" width="18" height="18" fill="#c8826a" stroke="#7a4a3a" stroke-width="1.5"/>
    <rect x="396" y="282" width="18" height="18" fill="#c8826a" stroke="#7a4a3a" stroke-width="1.5"/>
    <rect x="432" y="282" width="18" height="18" fill="#c8826a" stroke="#7a4a3a" stroke-width="1.5"/>
    <rect x="360" y="300" width="18" height="18" fill="#c8826a" stroke="#7a4a3a" stroke-width="1.5"/>
    <rect x="432" y="300" width="18" height="18" fill="#c8826a" stroke="#7a4a3a" stroke-width="1.5"/>
    <rect x="360" y="318" width="18" height="18" fill="#c8826a" stroke="#7a4a3a" stroke-width="1.5"/>
    <rect x="432" y="318" width="18" height="18" fill="#c8826a" stroke="#7a4a3a" stroke-width="1.5"/>
    <rect x="360" y="336" width="18" height="18" fill="#c8826a" stroke="#7a4a3a" stroke-width="1.5"/>
    <rect x="432" y="336" width="18" height="18" fill="#c8826a" stroke="#7a4a3a" stroke-width="1.5"/>
  </g>
</svg>
